<svg width="2991" height="2127" viewBox="0 0 2991 2127" fill="none" xmlns="http://www.w3.org/2000/svg">
<path d="M2771.13 1932.66C2741.29 1904.92 2684.91 1852.86 2632.94 1795.4C2580.97 1737.94 2533.4 1674.98 2500.81 1619.39C2468.22 1563.8 2450.6 1515.48 2443.33 1470.79C2435.95 1426.21 2438.93 1385.15 2447.73 1345.64C2456.54 1306.12 2471.19 1268.04 2490.57 1230.72C2509.95 1193.41 2534.06 1156.75 2567.09 1113.6C2600.02 1070.45 2641.75 1020.7 2669.94 985.477C2698.13 950.364 2712.77 929.89 2725.54 903.142C2738.43 876.504 2749.33 843.482 2770.58 798.903C2791.83 754.213 2823.32 697.855 2854.04 650.964C2884.87 604.183 2914.82 566.868 2932.44 536.047C2949.95 505.336 2955.12 481.23 2959.86 447.878C2964.59 414.636 2969 372.148 2975.27 334.392C2981.44 296.747 2989.59 263.835 2990.8 235.987C2992.12 208.138 2986.62 185.463 2983.09 156.734C2979.68 128.005 2978.14 93.2213 2975.05 72.7477C2971.97 52.274 2967.24 45.9998 2956.45 44.789C2945.65 43.4681 2928.81 47.1005 2915.04 54.5855C2901.28 62.1806 2890.71 73.5182 2882.78 84.6356C2874.96 95.753 2869.79 106.76 2865.93 100.706C2862.08 94.7623 2859.55 71.6469 2856.13 53.1546C2852.61 34.6622 2848.21 20.793 2839.62 11.7669C2831.03 2.85098 2818.15 -1.22174 2805.59 0.319292C2792.93 1.75025 2780.49 8.68488 2770.58 20.5728C2760.67 32.4608 2753.4 49.302 2749.33 66.3634C2745.36 83.3147 2744.59 100.596 2745.14 122.391C2745.69 144.075 2747.57 170.493 2749.88 190.416C2752.3 210.34 2755.27 223.879 2753.62 237.087C2751.97 250.296 2745.69 263.065 2740.96 277.154C2736.22 291.244 2732.92 306.654 2731.05 322.504C2729.29 338.465 2728.85 354.976 2726.86 363.011C2724.88 371.047 2721.14 370.607 2720.04 355.086C2718.94 339.566 2720.48 308.855 2722.24 287.611C2724.11 266.367 2726.31 254.699 2723.56 238.738C2720.81 222.778 2713.1 202.634 2708.92 179.629C2704.73 156.514 2703.96 130.536 2702.2 110.063C2700.33 89.5889 2697.36 74.6189 2692.29 66.1432C2687.11 57.7777 2679.85 55.9064 2669.17 57.8877C2658.6 59.9791 2644.61 65.813 2633.27 72.1973C2621.93 78.5815 2613.23 85.5162 2606.73 100.156C2600.35 114.796 2596.38 137.141 2594.18 157.284C2591.98 177.428 2591.54 195.37 2590.11 211.991C2588.68 228.612 2586.03 244.022 2586.25 263.065C2586.47 282.107 2589.34 304.783 2590.66 317.441C2591.98 329.989 2591.54 332.631 2588.24 340.777C2584.93 348.922 2578.77 362.571 2574.58 377.431C2570.29 392.291 2568.2 408.142 2566.65 423.552C2565.22 438.962 2564.45 453.712 2564.34 466.15C2564.12 478.589 2564.45 488.715 2562.47 495.1C2560.49 501.484 2556.08 504.236 2546.28 512.161C2536.48 520.196 2521.29 533.295 2506.31 552.228C2491.23 571.05 2476.47 595.597 2463.59 617.391C2450.82 639.296 2440.03 658.559 2433.64 669.896C2427.36 681.344 2425.49 685.087 2420.43 686.517C2415.25 687.948 2406.88 687.288 2401.6 686.848C2396.2 686.517 2394 686.517 2392.46 681.454C2390.81 676.391 2389.71 666.374 2388.61 649.863C2387.5 633.462 2386.4 610.567 2384.97 590.643C2383.65 570.72 2382 553.659 2380.35 540.34C2378.7 527.131 2377.04 517.555 2376.71 505.667C2376.27 493.669 2377.26 479.139 2377.15 464.94C2377.04 450.63 2375.94 436.541 2374.4 413.865C2372.86 391.19 2370.77 359.819 2368.01 336.924C2365.15 313.919 2361.52 299.279 2354.47 289.262C2347.53 279.135 2337.29 273.632 2326.17 272.531C2315.16 271.43 2303.27 274.732 2293.25 281.117C2283.34 287.391 2275.19 296.747 2268.48 309.516C2261.65 322.284 2256.25 338.575 2252.4 354.206C2248.55 369.726 2246.34 384.586 2245.35 400.106C2244.36 415.627 2244.47 431.917 2245.02 444.466C2245.57 457.014 2246.45 465.82 2245.57 476.827C2244.69 487.725 2241.94 500.934 2239.3 517.114C2236.65 533.295 2234.01 552.558 2233.02 571.271C2232.03 590.093 2232.58 608.365 2231.37 627.078C2230.05 645.9 2226.96 665.053 2222.67 684.096C2218.26 703.139 2212.87 721.961 2207.25 736.931C2201.64 751.791 2196.02 762.798 2186.88 776.558C2177.63 790.207 2165.08 806.718 2147.02 826.311C2128.97 845.904 2105.51 868.579 2082.17 893.456C2058.71 918.332 2035.26 945.41 2008.72 981.514C1982.19 1017.51 1952.57 1062.53 1930.77 1102.38C1908.96 1142.33 1895.09 1177.12 1885.18 1213.66C1875.27 1250.31 1869.43 1288.73 1868.55 1323.62C1867.56 1358.63 1871.64 1390.11 1882.98 1431.27C1894.32 1472.44 1913.04 1523.3 1939.13 1573.05C1965.34 1622.8 1999.03 1671.57 2035.48 1726.82C2071.93 1782.08 2111.02 1843.94 2139.98 1893.69C2168.94 1943.45 2187.54 1981.2 2197.67 2006.19C2207.69 2031.29 2209.13 2043.72 2210.12 2052.2C2211 2060.56 2211.33 2064.97 2221.02 2074.87C2230.82 2084.78 2249.76 2100.08 2267.15 2112.19C2284.55 2124.3 2300.3 2132.99 2301.62 2121.88C2302.94 2110.76 2289.73 2079.61 2273.1 2045.04C2256.36 2010.48 2236.21 1972.4 2207.91 1924.29C2179.51 1876.08 2142.95 1817.96 2102.1 1756.21C2061.25 1694.57 2016.21 1629.41 1982.74 1569.97C1949.27 1510.53 1927.24 1456.7 1916.45 1410.58C1905.66 1364.46 1905.99 1326.04 1908.63 1292.03C1911.17 1257.91 1915.9 1228.3 1928.67 1191.75C1941.56 1155.1 1962.37 1111.62 1984.94 1072.44C2007.4 1033.25 2031.63 998.466 2058.49 969.406C2085.36 940.237 2115.09 916.901 2141.08 902.592C2167.06 888.282 2189.42 883.219 2207.91 880.797C2226.41 878.486 2241.06 878.816 2244.69 877.935C2248.32 876.945 2241.06 874.743 2224.54 875.183C2208.02 875.514 2182.48 878.486 2163.98 881.568C2145.48 884.65 2134.14 887.952 2125.66 891.584C2117.29 895.217 2111.79 899.29 2113.66 896.538C2115.42 893.786 2124.56 884.32 2138.1 871.661C2151.65 859.003 2169.6 843.262 2182.48 831.814C2195.25 820.257 2202.96 812.882 2206.92 813.102C2211 813.322 2211.33 821.027 2212.65 829.063C2213.97 837.098 2216.17 845.464 2218.26 840.73C2220.47 835.997 2223.33 818.275 2229.17 801.764C2236.21 781.291 2246.67 764.67 2258.79 750.69C2273.32 733.739 2290.06 720.75 2305.69 709.853C2316.92 702.038 2324.08 699.286 2305.47 704.68C2296.66 707.321 2289.07 710.734 2281.36 714.806C2273.76 718.879 2266.05 723.612 2258.12 729.226C2250.31 734.73 2243.7 739.463 2236.65 745.847C2231.37 750.47 2232.14 745.957 2234.01 738.912C2235.99 731.978 2239.08 722.622 2240.95 713.045C2242.71 703.469 2243.26 693.562 2244.14 680.353C2244.91 667.255 2246.01 650.744 2248.66 636.434C2251.19 622.235 2255.15 610.126 2261.1 599.78C2266.93 589.433 2274.64 580.847 2283.34 575.784C2292.15 570.83 2302.06 569.289 2303.38 567.528C2304.81 565.877 2297.65 563.786 2290.06 564.336C2282.46 564.886 2274.42 568.078 2267.81 574.132C2261.21 580.297 2256.14 589.433 2254.6 579.966C2253.17 570.39 2255.37 542.211 2257.9 522.068C2258.57 516.674 2259.23 511.831 2259.89 507.428C2262.42 490.477 2267.48 482.221 2275.96 471.874C2284.44 461.527 2286.09 462.298 2293.47 460.206C2300.85 458.005 2310.43 457.234 2313.07 456.024C2315.82 454.703 2311.64 453.052 2305.69 452.721C2299.75 452.391 2292.04 453.272 2284.88 455.583C2277.72 457.895 2269.47 462.628 2266.82 464.279C2264.29 465.93 2265.39 465.27 2264.73 465.71C2264.73 459.876 2264.51 456.464 2263.85 447.438C2263.08 438.412 2261.65 422.011 2261.65 405.28C2261.76 388.548 2263.3 368.955 2266.93 351.784C2270.57 334.502 2276.4 319.753 2283.12 309.736C2289.84 299.719 2297.32 294.656 2306.35 292.674C2315.38 290.803 2326.06 292.124 2333.88 297.628C2341.81 303.021 2346.87 312.818 2350.73 330.21C2354.58 347.711 2357.11 372.918 2357.88 404.179C2358.66 435.33 2357.55 472.535 2357.11 494.439C2356.78 516.454 2357.11 523.168 2358.88 534.506C2360.64 545.844 2363.72 561.804 2365.04 585.03C2366.36 608.255 2365.81 638.856 2365.59 657.458C2365.48 666.924 2365.7 690.37 2356.45 697.195C2351.72 700.717 2339.94 705.78 2334.98 709.413C2330.03 712.935 2330.36 713.155 2328.15 715.247C2333.88 713.816 2334.43 713.596 2345 711.724C2355.57 709.853 2374.62 707.872 2385.85 707.431C2397.19 706.881 2405.78 706.991 2408.87 709.633C2411.95 712.385 2409.64 717.668 2402.15 729.226C2394.77 740.784 2382.33 758.506 2372.53 772.265C2362.73 786.134 2355.57 796.041 2346.32 807.708C2336.96 819.376 2325.4 832.915 2316.92 844.363C2308.34 855.811 2302.83 865.167 2298.54 872.211C2294.24 879.256 2291.16 883.989 2284.77 889.273C2278.39 894.446 2268.7 900.17 2245.35 917.011C2222.12 933.742 2185.34 961.811 2155.06 987.899C2124.78 1013.99 2101 1038.09 2079.42 1063.74C2057.72 1089.39 2038.34 1116.46 2022.05 1143.32C2005.75 1170.18 1992.65 1196.93 1980.87 1225.33C1969.19 1253.62 1958.95 1283.67 1953.45 1311.07C1947.94 1338.59 1947.17 1363.47 1949.6 1389.78C1952.02 1416.19 1957.41 1443.93 1965.89 1465.07C1974.26 1486.09 1985.6 1500.29 1988.57 1496.88C1991.55 1493.36 1986.04 1472.11 1982.41 1446.91C1978.66 1421.7 1976.9 1392.42 1979.22 1360.72C1981.64 1329.02 1988.24 1295 1998.04 1263.41C2007.95 1231.71 2021.17 1202.43 2037.68 1173.7C2054.09 1144.97 2073.91 1116.79 2096.59 1087.74C2119.28 1058.57 2144.93 1028.63 2179.18 999.897C2213.42 971.168 2256.25 943.649 2282.35 923.396C2308.56 903.032 2318.02 889.823 2335.09 866.598C2352.16 843.372 2376.6 810.13 2394.77 784.593C2412.94 759.166 2424.61 741.664 2434.08 722.842C2443.66 703.909 2450.93 683.766 2465.02 658.008C2479.12 632.251 2500.04 600.77 2519.64 575.673C2539.24 550.577 2557.51 531.974 2575.24 519.536C2592.97 507.098 2610.26 500.823 2620.83 497.852C2631.51 494.99 2635.47 495.32 2629.09 502.695C2622.7 509.96 2605.85 524.269 2590.33 543.422C2574.69 562.685 2560.49 586.791 2552.89 603.082C2545.4 619.373 2544.74 627.848 2550.58 637.315C2556.41 646.891 2568.86 657.458 2579.65 663.732C2590.44 669.896 2599.58 671.768 2597.93 667.915C2596.27 664.062 2583.83 654.486 2576.01 644.69C2568.09 634.783 2564.78 624.546 2569.08 609.356C2573.26 594.166 2584.93 574.022 2598.7 556.411C2612.46 538.909 2628.21 523.829 2640.76 514.583C2653.42 505.226 2663 501.594 2673.79 501.704C2684.58 501.924 2696.58 505.997 2703.74 513.482C2710.9 520.967 2713.1 531.974 2707.93 551.677C2702.86 571.491 2690.42 600 2680.84 620.473C2671.37 640.947 2664.76 653.385 2658.05 662.411C2651.22 671.327 2644.28 676.831 2642.85 680.573C2641.31 684.206 2645.38 685.967 2643.95 693.892C2642.41 701.708 2635.47 715.687 2627.66 734.51C2619.73 753.332 2610.92 777.108 2601.23 794.169C2591.54 811.231 2580.97 821.468 2565 825.981C2549.04 830.604 2527.9 829.503 2509.51 823.999C2491.23 818.496 2475.92 808.589 2474.38 810.24C2472.95 811.891 2485.39 825.1 2502.02 832.915C2518.65 840.84 2539.57 843.372 2545.62 851.077C2551.68 858.783 2542.87 871.551 2538.47 877.935C2534.06 884.32 2534.06 884.43 2526.79 894.116C2519.42 903.803 2504.77 923.175 2493.65 944.42C2482.42 965.664 2474.71 988.669 2466.89 1015.75C2459.08 1042.83 2450.93 1073.98 2444.21 1099.4C2437.38 1124.83 2431.88 1144.53 2422.19 1165.45C2412.5 1186.25 2398.63 1208.27 2401.16 1211.24C2403.69 1214.1 2422.74 1198.03 2436.5 1177.56C2450.27 1157.08 2458.64 1132.09 2466.89 1104.47C2475.15 1076.84 2483.19 1046.46 2492 1018.17C2500.81 989.77 2510.28 963.462 2524.15 937.485C2538.14 911.508 2556.41 885.861 2572.71 865.387C2589.01 844.803 2603.32 829.503 2613.67 813.872C2624.13 798.352 2630.74 782.612 2639.11 760.157C2647.59 737.592 2657.83 708.312 2672.47 674.299C2687.11 640.287 2706.16 601.431 2721.69 571.821C2737.21 542.211 2749.33 521.627 2761.66 505.226C2773.88 488.715 2786.32 476.277 2796.56 468.242C2806.8 460.206 2814.84 456.574 2825.08 455.803C2835.43 455.033 2847.88 457.234 2857.57 459.656C2867.26 462.078 2874.19 464.609 2873.09 462.408C2871.99 460.206 2862.85 453.272 2853.49 448.098C2844.13 443.035 2834.66 439.733 2829.71 431.697C2824.75 423.552 2824.42 410.783 2829.93 390.09C2835.43 369.396 2846.78 340.887 2855.36 320.743C2863.95 300.6 2869.79 288.932 2878.05 282.878C2886.3 276.824 2896.88 276.494 2905.13 276.604C2913.39 276.824 2919.23 277.594 2918.35 275.943C2917.36 274.292 2909.76 270.219 2902.38 268.238C2895.11 266.257 2888.07 266.257 2882.78 249.746C2877.5 233.235 2873.86 200.323 2875.07 172.915C2876.39 145.396 2882.56 123.492 2890.71 106.87C2898.75 90.1393 2908.66 78.8017 2915.92 72.4174C2923.3 66.0332 2928.04 64.6022 2932.99 63.0612C2938.06 61.6302 2943.34 60.1993 2947.42 60.4194C2951.49 60.7496 2954.13 62.731 2955.56 74.5088C2957 86.2867 2957.11 107.751 2957.77 123.492C2958.54 139.342 2959.75 149.359 2962.83 159.045C2965.8 168.732 2970.54 178.088 2973.51 188.765C2976.37 199.552 2977.48 211.55 2976.82 229.052C2976.04 246.554 2973.51 269.449 2971.09 286.841C2968.78 304.232 2966.58 316.12 2962.39 334.612C2958.32 353.215 2952.26 378.532 2948.08 398.565C2943.89 418.599 2941.47 433.348 2940.26 445.016C2939.05 456.574 2939.05 465.05 2936.51 478.258C2933.98 491.357 2928.81 509.299 2920.77 526.25C2912.73 543.202 2901.72 559.052 2884.87 581.397C2868.03 603.742 2845.34 632.471 2826.51 658.889C2807.69 685.307 2792.6 709.523 2778.18 734.069C2763.75 758.506 2749.77 783.382 2738.87 807.929C2727.86 832.475 2719.82 856.581 2708.26 881.127C2696.69 905.674 2681.72 930.55 2656.83 962.912C2631.95 995.384 2597.15 1035.23 2565.99 1071.44C2534.94 1107.66 2507.41 1140.24 2485.06 1171.72C2462.82 1203.2 2445.53 1233.58 2434.19 1260.66C2422.85 1287.74 2417.34 1311.51 2413.38 1334.74C2406.11 1376.9 2402.48 1405.41 2401.38 1447.13C2400.72 1471.12 2403.25 1486.09 2407.1 1500.29C2410.96 1514.6 2418.01 1532.32 2421.31 1540.03C2424.72 1547.73 2424.39 1546.85 2425.6 1550.04L2428.14 1555.11C2442.67 1583.84 2466.78 1632.49 2506.53 1692.7C2546.28 1752.91 2601.56 1824.68 2645.27 1876.41C2688.99 1928.26 2721.25 1960.07 2746.46 1981.97C2771.79 2003.99 2790.07 2016.1 2799.1 2016.76C2808.02 2017.53 2807.69 2006.96 2807.47 1996.83C2807.25 1986.82 2807.25 1977.24 2805.7 1970.74C2804.05 1964.14 2800.86 1960.51 2771.13 1932.66ZM2816.27 241.821C2811.1 238.518 2803.39 234.666 2796.01 232.244C2788.64 229.823 2781.48 228.942 2776.3 217.274C2771.02 205.496 2767.72 183.041 2765.51 162.788C2763.2 142.534 2761.88 124.592 2763.31 106.87C2764.63 89.1486 2768.71 71.5368 2772.67 59.3187C2776.74 47.1005 2780.71 40.0558 2785.66 35.3227C2790.62 30.5895 2796.45 28.0578 2803.39 27.2873C2810.44 26.5168 2818.48 27.6175 2824.53 31.2499C2830.59 34.7723 2834.55 40.8263 2838.08 54.3654C2841.49 67.9044 2844.46 88.9285 2847.77 118.318C2851.07 147.708 2854.7 185.353 2857.24 209.459C2859.88 233.565 2861.31 243.912 2859.55 253.598C2857.79 263.175 2852.83 271.981 2846.44 285.41C2840.06 298.839 2832.13 317.001 2826.4 334.062C2820.68 351.234 2817.05 367.304 2814.4 381.834C2811.87 396.364 2810.44 409.352 2809.34 417.718C2808.24 426.084 2807.47 429.716 2803.83 434.449C2800.2 439.182 2793.59 445.016 2783.35 455.583C2773.11 466.15 2759.13 481.34 2749.66 492.788C2740.08 504.126 2735.01 511.831 2731.27 512.271C2727.64 512.821 2725.43 505.997 2722.13 500.603C2718.72 495.21 2714.09 491.137 2708.7 487.945C2703.3 484.753 2697.14 482.441 2691.19 481.23C2685.35 480.02 2679.85 480.02 2679.3 475.396C2678.75 470.883 2683.15 461.747 2688.88 452.721C2694.49 443.805 2701.43 435 2709.36 426.634C2717.17 418.378 2725.98 410.453 2734.24 405.94C2742.5 401.317 2750.21 399.996 2759.35 399.996C2768.49 399.886 2779.06 400.987 2781.7 399.886C2784.45 398.785 2779.06 395.483 2771.68 393.061C2764.3 390.75 2754.72 389.209 2749.44 386.457C2744.15 383.815 2743.05 379.743 2743.71 365.543C2744.37 351.344 2746.68 327.017 2750.43 307.755C2754.17 288.382 2759.35 274.182 2763.86 263.505C2768.49 252.938 2772.56 246.003 2776.63 242.261C2780.71 238.628 2785 238.298 2789.19 238.408C2793.37 238.518 2797.56 239.069 2803.83 241.16C2810 243.362 2818.26 247.214 2821.12 247.765C2823.98 248.205 2821.34 245.233 2816.27 241.821ZM2635.14 210.45C2626.22 209.899 2618.74 206.597 2614.22 199.662C2609.82 192.728 2608.28 182.051 2608.28 169.722C2608.28 157.394 2609.82 143.305 2612.35 130.646C2614.88 118.098 2618.52 106.87 2624.35 99.1653C2630.08 91.3501 2638.01 86.9471 2645.93 85.0759C2653.86 83.0946 2661.9 83.6449 2667.96 88.4882C2674.01 93.3314 2678.09 102.468 2682.16 120.74C2686.34 138.902 2690.53 166.2 2694.27 188.545C2698.02 210.78 2701.32 228.171 2703.08 239.289C2704.73 250.406 2704.95 255.139 2704.62 265.817C2704.18 276.494 2703.3 293.225 2702.2 310.066C2701.1 326.797 2699.89 343.859 2699.12 359.489C2698.35 375.12 2698.24 389.429 2697.69 397.354C2697.25 405.39 2696.58 407.041 2693.28 410.123C2689.98 413.205 2684.14 417.828 2678.09 424.543C2672.03 431.367 2665.75 440.283 2661.57 447.768C2657.39 455.363 2655.18 461.307 2651.11 464.389C2647.14 467.361 2641.31 467.361 2634.92 467.801C2628.65 468.352 2621.82 469.232 2614.33 471.434C2606.84 473.635 2598.59 477.048 2593.41 477.048C2588.13 476.938 2586.03 473.195 2584.93 462.958C2583.83 452.721 2583.83 435.88 2584.6 421.02C2585.48 406.05 2587.02 393.062 2591.43 379.963C2595.72 366.754 2602.66 353.435 2607.95 344.629C2613.23 335.823 2616.86 331.64 2624.57 328.779C2632.28 325.917 2644.06 324.486 2645.05 322.835C2646.15 321.184 2636.68 319.312 2629.31 317.771C2621.82 316.23 2616.53 314.909 2612.57 311.167C2608.72 307.314 2606.07 300.82 2604.42 290.363C2602.77 279.796 2602.11 265.156 2602 253.598C2601.89 241.931 2602.44 233.345 2604.2 227.071C2605.96 220.686 2608.83 216.724 2613.23 215.293C2617.64 213.972 2623.47 215.183 2628.76 216.283C2633.93 217.384 2638.56 218.375 2644.39 216.724C2650.23 215.073 2657.39 210.78 2655.84 209.789C2654.3 208.798 2643.95 211 2635.14 210.45ZM219.871 1932.66C249.711 1904.92 306.087 1852.86 358.059 1795.4C410.032 1737.94 457.599 1674.98 490.192 1619.39C522.785 1563.8 540.402 1515.48 547.67 1470.79C555.047 1426.21 552.074 1385.15 543.265 1345.64C534.456 1306.12 519.812 1268.04 500.432 1230.72C481.053 1193.41 456.939 1156.75 423.906 1113.6C390.983 1070.45 349.251 1020.7 321.062 985.477C292.874 950.364 278.229 929.89 265.457 903.142C252.574 876.504 241.563 843.482 220.421 798.903C199.17 754.213 167.679 697.855 136.958 650.964C106.127 604.183 76.1768 566.868 58.5592 536.047C40.9415 505.336 35.8764 481.23 31.1417 447.878C26.2968 414.636 22.0025 372.148 15.7262 334.392C9.44992 296.747 1.41186 263.835 0.200646 235.987C-1.12068 208.138 4.38484 185.463 7.90837 156.734C11.3218 128.005 12.7532 93.2213 15.9464 72.7477C19.0295 52.274 23.7643 45.9998 34.5551 44.789C45.3459 43.4681 62.1928 47.1005 75.9566 54.5855C89.7204 62.1806 100.291 73.5182 108.219 84.6356C116.037 95.753 121.212 106.76 125.066 100.706C128.81 94.7623 131.452 71.6469 134.866 53.1546C138.389 34.6622 142.794 20.793 151.382 11.7669C159.971 2.85098 172.744 -1.22174 185.406 0.319292C198.069 1.75025 210.512 8.68488 220.421 20.5728C230.221 32.4608 237.599 49.302 241.673 66.3634C245.637 83.3147 246.408 100.596 245.857 122.391C245.306 144.075 243.435 170.493 241.122 190.416C238.7 210.34 235.727 223.879 237.378 237.087C239.03 250.296 245.306 263.065 250.041 277.154C254.776 291.244 258.079 306.654 259.951 322.504C261.713 338.465 262.153 354.976 264.135 363.011C266.117 371.047 269.861 370.607 270.962 355.086C271.953 339.566 270.522 308.855 268.76 287.611C266.888 266.367 264.686 254.699 267.439 238.738C270.191 222.778 277.899 202.634 282.083 179.629C286.267 156.514 287.038 130.536 288.8 110.063C290.672 89.5889 293.645 74.6189 298.71 66.1432C303.885 57.7777 311.152 55.9064 321.833 57.8877C332.404 59.9791 346.278 65.813 357.729 72.1973C369.071 78.5815 377.769 85.5162 384.266 100.156C390.652 114.796 394.616 137.141 396.818 157.284C399.021 177.428 399.461 195.37 400.892 211.991C402.324 228.612 404.856 244.022 404.746 263.065C404.526 282.107 401.663 304.783 400.342 317.441C399.021 329.989 399.461 332.631 402.764 340.777C405.958 348.922 412.234 362.571 416.418 377.431C420.602 392.291 422.804 408.142 424.346 423.552C425.777 438.962 426.548 453.712 426.658 466.15C426.879 478.589 426.548 488.715 428.53 495.1C430.512 501.484 434.917 504.236 444.716 512.161C454.516 520.196 469.711 533.295 484.686 552.228C499.772 571.05 514.526 595.597 527.409 617.391C540.182 639.296 550.973 658.559 557.359 669.896C563.636 681.344 565.508 685.087 570.573 686.517C575.748 687.948 584.116 687.288 589.401 686.848C594.687 686.517 596.889 686.517 598.541 681.454C600.192 676.391 601.293 666.374 602.394 649.863C603.496 633.462 604.597 610.567 606.028 590.643C607.349 570.72 609.001 553.659 610.653 540.34C612.304 527.131 613.956 517.555 614.286 505.667C614.727 493.669 613.736 479.139 613.846 464.94C613.956 450.63 615.057 436.541 616.599 413.865C618.14 391.19 620.232 359.819 622.985 336.924C625.848 313.919 629.482 299.279 636.529 289.262C643.466 279.135 653.706 273.632 664.717 272.531C675.838 271.43 687.73 274.732 697.75 281.117C707.66 287.391 715.698 296.747 722.525 309.516C729.242 322.284 734.747 338.575 738.601 354.206C742.455 369.726 744.657 384.586 745.648 400.106C746.639 415.627 746.529 431.917 745.978 444.466C745.428 457.014 744.437 465.82 745.428 476.827C746.309 487.725 749.062 500.934 751.704 517.114C754.347 533.295 756.879 552.558 757.98 571.271C758.971 590.093 758.421 608.365 759.632 627.078C760.953 645.9 764.037 665.053 768.331 684.096C772.625 703.139 778.131 721.961 783.746 736.931C789.362 751.791 794.978 762.798 804.117 776.558C813.366 790.207 825.919 806.718 843.977 826.311C862.035 845.904 885.488 868.579 908.832 893.456C932.285 918.332 955.739 945.41 982.275 981.514C1008.81 1017.51 1038.43 1062.53 1060.23 1102.38C1082.04 1142.33 1095.91 1177.12 1105.82 1213.66C1115.73 1250.31 1121.57 1288.73 1122.45 1323.62C1123.44 1358.63 1119.36 1390.11 1108.02 1431.27C1096.68 1472.44 1077.96 1523.3 1051.87 1573.05C1025.66 1622.8 991.965 1671.57 955.519 1726.82C919.072 1782.08 879.983 1843.94 851.024 1893.69C822.065 1943.45 803.456 1981.2 793.326 2006.19C783.306 2031.29 781.874 2043.72 780.883 2052.2C780.003 2060.56 779.672 2064.97 769.872 2074.87C760.183 2084.78 741.134 2100.08 723.846 2112.19C706.449 2124.3 690.703 2132.99 689.382 2121.88C688.06 2110.76 701.274 2079.61 717.9 2045.04C734.637 2010.48 754.787 1972.4 783.086 1924.29C811.494 1876.08 848.051 1817.96 888.902 1756.21C929.753 1694.57 974.788 1629.41 1008.26 1569.97C1041.74 1510.53 1063.76 1456.7 1074.55 1410.58C1085.34 1364.46 1085.01 1326.04 1082.37 1292.03C1079.83 1257.91 1075.1 1228.3 1062.22 1191.75C1049.44 1155.1 1028.63 1111.62 1006.06 1072.44C983.597 1033.25 959.372 998.466 932.505 969.406C905.528 940.237 875.909 916.901 849.923 902.592C823.937 888.282 801.584 883.219 783.086 880.797C764.587 878.486 749.942 878.816 746.309 877.935C742.675 876.945 749.942 874.743 766.459 875.183C782.976 875.514 808.521 878.486 827.02 881.568C845.518 884.65 856.86 887.952 865.338 891.584C873.707 895.217 879.212 899.29 877.34 896.538C875.578 893.786 866.439 884.32 852.896 871.661C839.352 859.003 821.404 843.262 808.521 831.814C795.748 820.257 788.041 812.882 784.077 813.102C780.003 813.322 779.672 821.027 778.351 829.063C777.03 837.098 774.827 845.464 772.625 840.73C770.533 835.997 767.56 818.275 761.834 801.764C754.787 781.291 744.327 764.67 732.215 750.69C717.68 733.739 700.943 720.75 685.308 709.853C674.076 702.038 666.919 699.286 685.528 704.68C694.337 707.321 701.934 710.734 709.642 714.806C717.24 718.879 724.947 723.612 732.875 729.226C740.693 734.73 747.3 739.463 754.347 745.847C759.632 750.47 758.861 745.957 756.99 738.912C755.008 731.978 751.924 722.622 750.053 713.045C748.291 703.469 747.74 693.562 746.859 680.353C746.089 667.255 744.987 650.744 742.345 636.434C739.812 622.235 735.738 610.126 729.902 599.78C724.066 589.433 716.359 580.847 707.55 575.784C698.851 570.83 688.941 569.289 687.51 567.528C686.188 565.877 693.346 563.786 700.943 564.336C708.541 564.886 716.579 568.078 723.186 574.132C729.792 580.297 734.857 589.433 736.289 579.966C737.83 570.39 735.628 542.211 733.096 522.068C732.435 516.674 731.774 511.831 731.114 507.428C728.581 490.477 723.406 482.221 715.037 471.874C706.559 461.527 704.907 462.298 697.53 460.206C690.152 458.005 680.573 457.234 677.93 456.024C675.177 454.703 679.362 453.052 685.308 452.721C691.254 452.391 698.961 453.272 706.118 455.583C713.276 457.895 721.534 462.628 724.177 464.279C726.709 465.93 725.608 465.27 726.159 465.71C726.269 459.876 726.489 456.464 727.15 447.438C727.92 438.412 729.352 422.011 729.242 405.28C729.242 388.548 727.7 368.955 724.066 351.784C720.433 334.502 714.597 319.753 707.88 309.736C701.164 299.719 693.676 294.656 684.647 292.674C675.618 290.803 664.937 292.124 657.119 297.628C649.191 303.021 644.126 312.818 640.272 330.21C636.419 347.711 633.776 372.918 633.115 404.179C632.345 435.33 633.446 472.535 633.776 494.439C634.216 516.454 633.776 523.168 632.124 534.506C630.363 545.844 627.279 561.804 625.958 585.03C624.637 608.255 625.187 638.856 625.408 657.458C625.518 666.924 625.297 690.37 634.437 697.195C639.281 700.717 651.063 705.78 656.018 709.413C660.863 712.935 660.643 713.155 662.845 715.247C657.119 713.816 656.569 713.596 645.998 711.724C635.428 709.853 616.378 707.872 605.037 707.431C593.806 706.881 585.217 706.991 582.134 709.633C579.051 712.385 581.363 717.668 588.851 729.226C596.228 740.784 608.671 758.506 618.471 772.265C628.27 786.134 635.428 796.041 644.677 807.708C654.036 819.376 665.598 832.915 674.076 844.363C682.665 855.811 688.06 865.167 692.465 872.211C696.759 879.256 699.842 883.989 706.229 889.273C712.615 894.446 722.305 900.17 745.538 917.011C768.881 933.742 805.658 961.811 835.939 987.899C866.219 1013.99 890.003 1038.09 911.584 1063.74C933.166 1089.39 952.656 1116.46 968.952 1143.32C985.248 1170.18 998.351 1196.93 1010.13 1225.33C1021.81 1253.62 1032.05 1283.67 1037.55 1311.07C1043.06 1338.59 1043.83 1363.47 1041.4 1389.78C1038.98 1416.19 1033.59 1443.93 1025.11 1465.07C1016.74 1486.09 1005.29 1500.29 1002.43 1496.88C999.453 1493.36 1004.96 1472.11 1008.59 1446.91C1012.34 1421.7 1014.1 1392.42 1011.78 1360.72C1009.36 1329.02 1002.76 1295 992.846 1263.41C983.046 1231.71 969.833 1202.43 953.316 1173.7C936.91 1144.97 917.09 1116.79 894.407 1087.74C871.725 1058.57 846.069 1028.63 811.825 999.897C777.58 971.168 734.747 943.649 708.651 923.396C682.445 903.032 672.865 889.823 655.908 866.598C638.841 843.372 614.286 810.13 596.228 784.593C578.06 759.166 566.388 741.664 556.809 722.842C547.339 703.909 540.072 683.766 525.978 658.008C511.884 632.251 490.963 600.77 471.363 575.673C451.763 550.577 433.485 531.974 415.757 519.536C397.919 507.098 380.742 500.823 370.172 497.852C359.491 494.99 355.527 495.32 361.913 502.695C368.3 509.96 385.147 524.269 400.672 543.422C416.308 562.685 430.512 586.791 438.11 603.082C445.597 619.373 446.258 627.848 440.422 637.315C434.586 646.891 422.144 657.458 411.353 663.732C400.562 669.896 391.423 671.768 393.075 667.915C394.726 664.062 407.169 654.486 414.987 644.69C422.915 634.783 426.108 624.546 421.924 609.356C417.739 594.166 406.068 574.022 392.304 556.411C378.54 538.909 362.794 523.829 350.242 514.583C337.579 505.226 327.999 501.594 317.209 501.704C306.418 501.924 294.416 505.997 287.258 513.482C280.101 520.967 277.899 531.974 282.964 551.677C288.139 571.491 300.582 600 310.051 620.473C319.631 640.947 326.238 653.385 332.954 662.411C339.781 671.327 346.718 676.831 348.15 680.573C349.691 684.206 345.617 685.967 347.048 693.892C348.59 701.708 355.527 715.687 363.345 734.51C371.273 753.332 380.082 777.108 389.771 794.169C399.461 811.231 410.032 821.468 425.998 825.981C441.854 830.604 463.105 829.503 481.493 823.999C499.772 818.496 515.077 808.589 516.618 810.24C518.05 811.891 505.607 825.1 488.981 832.915C472.244 840.84 451.433 843.372 445.377 851.077C439.321 858.783 448.13 871.551 452.534 877.935C456.939 884.32 456.939 884.43 464.206 894.116C471.583 903.803 486.228 923.175 497.349 944.42C508.58 965.664 516.178 988.669 524.106 1015.75C531.924 1042.83 540.072 1073.98 546.789 1099.4C553.616 1124.83 559.011 1144.53 568.811 1165.45C578.501 1186.25 592.374 1208.27 589.842 1211.24C587.199 1214.1 568.26 1198.03 554.496 1177.56C540.733 1157.08 532.364 1132.09 524.106 1104.47C515.848 1076.84 507.81 1046.46 499.001 1018.17C490.192 989.77 480.722 963.462 466.849 937.485C452.865 911.508 434.586 885.861 418.29 865.387C401.994 844.803 387.679 829.503 377.329 813.872C366.868 798.352 360.262 782.612 351.893 760.157C343.415 737.592 333.175 708.312 318.53 674.299C303.885 640.287 284.836 601.431 269.31 571.821C253.675 542.211 241.673 521.627 229.34 505.226C217.118 488.715 204.676 476.277 194.435 468.242C184.195 460.206 176.157 456.574 165.807 455.803C155.566 455.033 143.124 457.234 133.434 459.656C123.745 462.078 116.808 464.609 117.909 462.408C119.01 460.206 128.149 453.272 137.508 448.098C146.868 443.035 156.337 439.733 161.292 431.697C166.247 423.552 166.577 410.783 161.072 390.09C155.566 369.396 144.225 340.887 135.636 320.743C127.048 300.6 121.212 288.932 112.954 282.878C104.695 276.824 94.1248 276.494 85.8665 276.604C77.6083 276.824 71.7724 277.594 72.6533 275.943C73.6443 274.292 81.2419 270.219 88.6193 268.238C95.8866 266.257 102.934 266.257 108.219 249.746C113.504 233.235 117.138 200.323 115.927 172.915C114.605 145.396 108.329 123.492 100.291 106.87C92.2529 90.1393 82.343 78.8017 75.0757 72.4174C67.6983 66.0332 62.9636 64.6022 57.8985 63.0612C52.9435 61.6302 47.6582 60.1993 43.5841 60.4194C39.5101 60.7496 36.7573 62.731 35.436 74.5088C34.0045 86.2867 33.8944 107.751 33.2338 123.492C32.463 139.342 31.2518 149.359 28.1687 159.045C25.1957 168.732 20.461 178.088 17.488 188.765C14.515 199.552 13.4139 211.55 14.1847 229.052C14.9554 246.554 17.488 269.449 19.9104 286.841C22.2227 304.232 24.4249 316.12 28.6091 334.612C32.6832 353.215 38.7393 378.532 42.9235 398.565C47.1077 418.599 49.5301 433.348 50.7413 445.016C51.9525 456.574 51.9525 465.05 54.4851 478.258C57.0176 491.357 62.1928 509.299 70.2309 526.25C78.2689 543.202 89.28 559.052 106.127 581.397C122.974 603.742 145.657 632.471 164.485 658.889C183.314 685.307 198.399 709.523 212.824 734.069C227.248 758.506 241.232 783.382 252.133 807.929C263.144 832.475 271.182 856.581 282.744 881.127C294.306 905.674 309.281 930.55 334.166 962.912C359.05 995.384 393.845 1035.23 425.007 1071.44C456.058 1107.66 483.585 1140.24 505.828 1171.72C528.18 1203.2 545.467 1233.58 556.809 1260.66C568.15 1287.74 573.656 1311.51 577.62 1334.74C584.887 1376.9 588.521 1405.41 589.622 1447.13C590.282 1471.12 587.75 1486.09 583.896 1500.29C580.042 1514.6 572.995 1532.32 569.692 1540.03C566.278 1547.73 566.609 1546.85 565.397 1550.04L562.755 1555.11C548.33 1583.84 524.216 1632.49 484.466 1692.7C444.716 1752.91 389.441 1824.68 345.727 1876.41C301.903 1928.26 269.751 1960.07 244.426 1981.97C219.21 2003.99 200.932 2016.1 191.903 2016.76C182.984 2017.53 183.314 2006.96 183.534 1996.83C183.755 1986.82 183.755 1977.24 185.296 1970.74C186.948 1964.14 190.141 1960.51 219.871 1932.66ZM174.726 241.821C179.901 238.518 187.498 234.666 194.986 232.244C202.363 229.823 209.521 228.942 214.696 217.274C219.981 205.496 223.284 183.041 225.487 162.788C227.799 142.534 229.12 124.592 227.689 106.87C226.367 89.1486 222.293 71.5368 218.329 59.3187C214.255 47.1005 210.291 40.0558 205.336 35.3227C200.381 30.5895 194.546 28.0578 187.498 27.2873C180.562 26.5168 172.523 27.6175 166.467 31.2499C160.411 34.7723 156.447 40.8263 152.924 54.3654C149.51 67.9044 146.537 88.9285 143.234 118.318C139.931 147.708 136.297 185.353 133.765 209.459C131.122 233.565 129.69 243.912 131.452 253.598C133.214 263.175 138.169 271.981 144.555 285.41C150.942 298.839 158.76 317.001 164.595 334.062C170.321 351.234 173.955 367.304 176.598 381.834C179.13 396.364 180.562 409.352 181.663 417.718C182.764 426.084 183.534 429.716 187.168 434.449C190.802 439.182 197.408 445.016 207.649 455.583C217.889 466.15 231.873 481.34 241.342 492.788C250.922 504.126 255.987 511.831 259.621 512.271C263.365 512.821 265.567 505.997 268.87 500.603C272.283 495.21 276.908 491.137 282.304 487.945C287.699 484.753 293.865 482.441 299.811 481.23C305.647 480.02 311.152 480.02 311.703 475.396C312.254 470.883 307.849 461.747 302.123 452.721C296.508 443.805 289.461 435 281.643 426.634C273.715 418.378 265.016 410.453 256.758 405.94C248.5 401.317 240.792 399.996 231.653 399.996C222.514 399.886 211.943 400.987 209.19 399.886C206.548 398.785 211.943 395.483 219.32 393.061C226.698 390.75 236.277 389.209 241.563 386.457C246.848 383.815 247.949 379.743 247.288 365.543C246.628 351.344 244.315 327.017 240.572 307.755C236.828 288.382 231.653 274.182 227.138 263.505C222.514 252.938 218.439 246.003 214.365 242.261C210.291 238.628 205.997 238.298 201.813 238.408C197.629 238.518 193.444 239.069 187.168 241.16C181.002 243.362 172.744 247.214 169.881 247.765C167.018 248.205 169.661 245.233 174.726 241.821ZM355.857 210.45C364.776 209.899 372.264 206.597 376.778 199.662C381.183 192.728 382.724 182.051 382.724 169.722C382.724 157.394 381.183 143.305 378.65 130.646C376.118 118.098 372.374 106.87 366.648 99.1653C360.922 91.3501 352.994 86.9471 345.066 85.0759C337.138 83.0946 329.1 83.6449 323.044 88.4882C316.988 93.3314 312.914 102.468 308.84 120.74C304.656 138.902 300.472 166.2 296.728 188.545C292.984 210.78 289.681 228.171 287.919 239.289C286.157 250.406 286.047 255.139 286.378 265.817C286.708 276.494 287.699 293.225 288.8 310.066C289.901 326.797 291.112 343.859 291.883 359.489C292.654 375.12 292.764 389.429 293.204 397.354C293.755 405.39 294.416 407.041 297.719 410.123C301.022 413.205 306.858 417.828 312.914 424.543C318.97 431.367 325.247 440.283 329.431 447.768C333.615 455.363 335.817 461.307 339.891 464.389C343.855 467.361 349.691 467.361 356.077 467.801C362.354 468.352 369.181 469.232 376.668 471.434C384.156 473.635 392.414 477.048 397.589 477.048C402.764 476.938 404.967 473.195 406.068 462.958C407.169 452.721 407.169 435.88 406.398 421.02C405.517 406.05 403.865 393.062 399.571 379.963C395.277 366.754 388.34 353.435 383.055 344.629C377.769 335.823 374.025 331.64 366.428 328.779C358.72 325.917 346.938 324.486 345.837 322.835C344.736 321.184 354.316 319.312 361.693 317.771C369.181 316.23 374.466 314.909 378.43 311.167C382.284 307.314 384.926 300.82 386.578 290.363C388.12 279.796 388.89 265.156 389.001 253.598C389.111 241.931 388.56 233.345 386.798 227.071C385.037 220.686 382.174 216.724 377.769 215.293C373.365 213.972 367.529 215.183 362.244 216.283C357.068 217.384 352.444 218.375 346.608 216.724C340.772 215.073 333.615 210.78 335.157 209.789C336.698 208.798 346.938 211 355.857 210.45Z" fill="black"/>
</svg>
